<svg width="149" height="27" viewBox="0 0 149 27" fill="none" xmlns="http://www.w3.org/2000/svg">
<path d="M38.69 21.176C36.666 21.176 35.0747 20.5967 33.916 19.438C32.7573 18.2793 32.178 16.5853 32.178 14.356V5.6H34.378V14.268C34.378 15.984 34.752 17.238 35.5 18.03C36.2627 18.822 37.3333 19.218 38.712 19.218C40.1053 19.218 41.176 18.822 41.924 18.03C42.6867 17.238 43.068 15.984 43.068 14.268V5.6H45.202V14.356C45.202 16.5853 44.6227 18.2793 43.464 19.438C42.32 20.5967 40.7287 21.176 38.69 21.176ZM49.4043 21V9.34H51.4283V12.508L51.2303 11.716C51.553 10.9093 52.0957 10.2933 52.8583 9.868C53.621 9.44267 54.5597 9.23 55.6743 9.23V11.276C55.5863 11.2613 55.4983 11.254 55.4103 11.254C55.337 11.254 55.2637 11.254 55.1903 11.254C54.061 11.254 53.1663 11.5913 52.5063 12.266C51.8463 12.9407 51.5163 13.916 51.5163 15.192V21H49.4043ZM64.4594 21.132C63.4621 21.132 62.5601 20.912 61.7534 20.472C60.9614 20.0173 60.3307 19.35 59.8614 18.47C59.4067 17.59 59.1794 16.49 59.1794 15.17C59.1794 13.85 59.4141 12.75 59.8834 11.87C60.3674 10.99 61.0054 10.33 61.7974 9.89C62.6041 9.45 63.4914 9.23 64.4594 9.23C65.6034 9.23 66.6154 9.47933 67.4954 9.978C68.3754 10.4767 69.0721 11.1733 69.5854 12.068C70.0987 12.948 70.3554 13.982 70.3554 15.17C70.3554 16.358 70.0987 17.3993 69.5854 18.294C69.0721 19.1887 68.3754 19.8853 67.4954 20.384C66.6154 20.8827 65.6034 21.132 64.4594 21.132ZM58.2774 21V4.676H60.3894V12.442L60.1694 15.148L60.3014 17.854V21H58.2774ZM64.2834 19.284C65.0314 19.284 65.6987 19.1153 66.2854 18.778C66.8867 18.4407 67.3561 17.964 67.6934 17.348C68.0454 16.7173 68.2214 15.9913 68.2214 15.17C68.2214 14.334 68.0454 13.6153 67.6934 13.014C67.3561 12.398 66.8867 11.9213 66.2854 11.584C65.6987 11.2467 65.0314 11.078 64.2834 11.078C63.5501 11.078 62.8827 11.2467 62.2814 11.584C61.6947 11.9213 61.2254 12.398 60.8734 13.014C60.5361 13.6153 60.3674 14.334 60.3674 15.17C60.3674 15.9913 60.5361 16.7173 60.8734 17.348C61.2254 17.964 61.6947 18.4407 62.2814 18.778C62.8827 19.1153 63.5501 19.284 64.2834 19.284ZM80.4041 21V18.536L80.2941 18.074V13.872C80.2941 12.9773 80.0301 12.288 79.5021 11.804C78.9887 11.3053 78.2114 11.056 77.1701 11.056C76.4807 11.056 75.8061 11.1733 75.1461 11.408C74.4861 11.628 73.9287 11.9287 73.4741 12.31L72.5941 10.726C73.1954 10.242 73.9141 9.87533 74.7501 9.626C75.6007 9.362 76.4881 9.23 77.4121 9.23C79.0107 9.23 80.2427 9.61867 81.1081 10.396C81.9734 11.1733 82.4061 12.3613 82.4061 13.96V21H80.4041ZM76.5761 21.132C75.7107 21.132 74.9481 20.9853 74.2881 20.692C73.6427 20.3987 73.1441 19.9953 72.7921 19.482C72.4401 18.954 72.2641 18.36 72.2641 17.7C72.2641 17.0693 72.4107 16.4973 72.7041 15.984C73.0121 15.4707 73.5034 15.06 74.1781 14.752C74.8674 14.444 75.7914 14.29 76.9501 14.29H80.6461V15.808H77.0381C75.9821 15.808 75.2707 15.984 74.9041 16.336C74.5374 16.688 74.3541 17.1133 74.3541 17.612C74.3541 18.184 74.5814 18.646 75.0361 18.998C75.4907 19.3353 76.1214 19.504 76.9281 19.504C77.7201 19.504 78.4094 19.328 78.9961 18.976C79.5974 18.624 80.0301 18.1107 80.2941 17.436L80.7121 18.888C80.4334 19.5773 79.9421 20.1273 79.2381 20.538C78.5341 20.934 77.6467 21.132 76.5761 21.132ZM92.5405 9.23C93.4938 9.23 94.3298 9.41333 95.0485 9.78C95.7818 10.1467 96.3538 10.704 96.7645 11.452C97.1752 12.2 97.3805 13.146 97.3805 14.29V21H95.2685V14.532C95.2685 13.4027 94.9898 12.552 94.4325 11.98C93.8898 11.408 93.1198 11.122 92.1225 11.122C91.3745 11.122 90.7218 11.2687 90.1645 11.562C89.6072 11.8553 89.1745 12.288 88.8665 12.86C88.5732 13.432 88.4265 14.1433 88.4265 14.994V21H86.3145V9.34H88.3385V12.486L88.0085 11.65C88.3898 10.8873 88.9765 10.2933 89.7685 9.868C90.5605 9.44267 91.4845 9.23 92.5405 9.23ZM105.139 21L99.9911 5.6H102.257L106.987 19.812H105.843L110.749 5.6H112.773L117.569 19.812H116.469L121.265 5.6H123.355L118.207 21H115.897L111.409 7.822H112.003L107.493 21H105.139ZM132.095 21V18.536L131.985 18.074V13.872C131.985 12.9773 131.721 12.288 131.193 11.804C130.68 11.3053 129.903 11.056 128.861 11.056C128.172 11.056 127.497 11.1733 126.837 11.408C126.177 11.628 125.62 11.9287 125.165 12.31L124.285 10.726C124.887 10.242 125.605 9.87533 126.441 9.626C127.292 9.362 128.179 9.23 129.103 9.23C130.702 9.23 131.934 9.61867 132.799 10.396C133.665 11.1733 134.097 12.3613 134.097 13.96V21H132.095ZM128.267 21.132C127.402 21.132 126.639 20.9853 125.979 20.692C125.334 20.3987 124.835 19.9953 124.483 19.482C124.131 18.954 123.955 18.36 123.955 17.7C123.955 17.0693 124.102 16.4973 124.395 15.984C124.703 15.4707 125.195 15.06 125.869 14.752C126.559 14.444 127.483 14.29 128.641 14.29H132.337V15.808H128.729C127.673 15.808 126.962 15.984 126.595 16.336C126.229 16.688 126.045 17.1133 126.045 17.612C126.045 18.184 126.273 18.646 126.727 18.998C127.182 19.3353 127.813 19.504 128.619 19.504C129.411 19.504 130.101 19.328 130.687 18.976C131.289 18.624 131.721 18.1107 131.985 17.436L132.403 18.888C132.125 19.5773 131.633 20.1273 130.929 20.538C130.225 20.934 129.338 21.132 128.267 21.132ZM138.297 25.4C137.74 25.4 137.197 25.3047 136.669 25.114C136.141 24.938 135.686 24.674 135.305 24.322L136.207 22.738C136.5 23.0167 136.823 23.2293 137.175 23.376C137.527 23.5227 137.901 23.596 138.297 23.596C138.81 23.596 139.236 23.464 139.573 23.2C139.91 22.936 140.226 22.4667 140.519 21.792L141.245 20.186L141.465 19.922L146.041 9.34H148.109L142.455 22.166C142.118 22.9873 141.736 23.6327 141.311 24.102C140.9 24.5713 140.446 24.9013 139.947 25.092C139.448 25.2973 138.898 25.4 138.297 25.4ZM141.069 21.374L135.745 9.34H137.945L142.477 19.724L141.069 21.374Z" fill="white"/>
<path d="M15.625 16.8438H14.0625V12.1562H15.625V16.8438ZM15.625 20.75V24.6562C15.625 24.8635 15.5427 25.0622 15.3962 25.2087C15.2497 25.3552 15.051 25.4375 14.8438 25.4375H10.1562C9.94905 25.4375 9.75034 25.3552 9.60382 25.2087C9.45731 25.0622 9.375 24.8635 9.375 24.6562V20.75H10.9375V23.875H14.0625V20.75H15.625ZM9.375 16.8438V12.1562H10.9375V16.8438H9.375ZM15.625 8.25H14.0625V5.125H10.9375V8.25H9.375V4.34375C9.375 4.13655 9.45731 3.93784 9.60382 3.79132C9.75034 3.64481 9.94905 3.5625 10.1562 3.5625H14.8438C15.051 3.5625 15.2497 3.64481 15.3962 3.79132C15.5427 3.93784 15.625 4.13655 15.625 4.34375V8.25Z" fill="white"/>
<path d="M5.39063 8.25L3.65156 10.2031L5.38906 12.1562H18.75V8.25H5.39063ZM5.03906 6.6875H19.5313C19.7385 6.6875 19.9372 6.76981 20.0837 6.91632C20.2302 7.06284 20.3125 7.26155 20.3125 7.46875V12.9375C20.3125 13.1447 20.2302 13.3434 20.0837 13.4899C19.9372 13.6364 19.7385 13.7188 19.5313 13.7188H5.03906C4.92864 13.7188 4.81946 13.6954 4.71873 13.6502C4.618 13.6049 4.52801 13.5388 4.45469 13.4562L2.02344 10.7219C1.89648 10.5789 1.82635 10.3943 1.82635 10.2031C1.82635 10.0119 1.89648 9.82735 2.02344 9.68438L4.45469 6.95C4.52801 6.86743 4.618 6.80134 4.71873 6.7561C4.81946 6.71085 4.92864 6.68747 5.03906 6.6875ZM21.6109 18.7969L19.875 20.75H6.51406V16.8438H19.8734L21.6109 18.7969ZM20.225 15.2812H5.73438C5.52718 15.2812 5.32846 15.3636 5.18195 15.5101C5.03544 15.6566 4.95313 15.8553 4.95313 16.0625V21.5312C4.95313 21.7385 5.03544 21.9372 5.18195 22.0837C5.32846 22.2302 5.52718 22.3125 5.73438 22.3125H20.2266C20.337 22.3125 20.4462 22.2891 20.5469 22.2439C20.6476 22.1987 20.7376 22.1326 20.8109 22.05L23.2422 19.3156C23.3692 19.1727 23.4393 18.9881 23.4393 18.7969C23.4393 18.6057 23.3692 18.4211 23.2422 18.2781L20.8109 15.5438C20.7376 15.4612 20.6476 15.3951 20.5469 15.3498C20.4462 15.3046 20.337 15.2812 20.2266 15.2812H20.225Z" fill="white"/>
</svg>
